<?xml version="1.0" encoding="UTF-8"?>
<svg width="224px" height="59px" viewBox="0 0 224 59" version="1.1" xmlns="http://www.w3.org/2000/svg" xmlns:xlink="http://www.w3.org/1999/xlink">
    <!-- Generator: Sketch 46.2 (44496) - http://www.bohemiancoding.com/sketch -->
    <title>Rectangle 2</title>
    <desc>Created with Sketch.</desc>
    <defs></defs>
    <g id="Page-1" stroke="none" stroke-width="1" fill="none" fill-rule="evenodd">
        <g id="Desktop" transform="translate(-753.000000, -41.000000)" fill="#FFFFFF">
            <path d="M770.60934,46.6821408 C802.072893,42.8940469 833.536447,41 865,41 C896.463553,41 927.927107,42.894047 959.390661,46.682141 L959.390661,46.6821425 C969.439137,47.8919414 976.999998,56.4177038 976.999998,66.5387455 L976.999998,75.1692506 L977,75.1692506 C977,85.4063407 969.269819,93.9907699 959.088708,95.0598854 C927.725806,98.3532951 896.362903,100 865,100 C833.637096,100 802.274193,98.3532951 770.91129,95.0598853 L770.91129,95.0598837 C760.730181,93.9907683 753.000001,85.4063405 753.000001,75.169252 L753.000001,66.5387466 L753,66.5387466 C753,56.4177035 760.560863,47.8919399 770.60934,46.6821408 Z" id="Rectangle-2"></path>
        </g>
    </g>
</svg>