<?xml version="1.0" encoding="UTF-8"?>
<svg width="214px" height="146px" viewBox="0 0 214 146" version="1.1" xmlns="http://www.w3.org/2000/svg" xmlns:xlink="http://www.w3.org/1999/xlink">
    <!-- Generator: Sketch 46.2 (44496) - http://www.bohemiancoding.com/sketch -->
    <title>FradSer</title>
    <desc>Created with Sketch.</desc>
    <defs>
        <path d="M152.307946,135.955469 C153.502955,135.075623 154.514118,134.149469 155.203547,132.945469 C155.52528,132.297161 155.801052,131.648854 156.122785,131.000546 C157.225871,128.731469 156.812214,126.5087 155.847013,124.285931 C155.29547,123.128239 154.56008,122.016855 153.640841,121.137009 C152.813527,120.349778 151.986212,119.608855 151.204859,118.867932 C150.74524,118.451163 150.285621,118.034394 149.917926,117.571317 C148.401182,115.672701 148.171373,113.774086 149.412344,111.69024 C150.837164,109.235933 152.951412,107.661472 155.75509,107.152087 C157.042023,106.920549 158.374919,106.920549 159.615891,107.383625 C160.902825,107.89301 161.50033,108.958087 161.132634,110.254702 C161.086673,110.578856 161.132634,111.041933 160.535129,110.856702 C160.213396,111.366087 159.707815,111.180856 159.248196,111.180856 C159.202234,110.671471 159.11031,110.208394 159.064348,109.745318 L158.8805,109.745318 C158.834538,110.208394 158.834538,110.671471 158.788576,111.134548 C158.374919,111.273471 158.007224,111.180856 157.639528,110.995625 C157.455681,110.856702 157.363757,110.578856 157.271833,110.347317 C157.133947,109.837933 157.042023,109.328548 156.72029,108.865471 C154.973737,109.930548 153.686803,111.273471 153.181222,113.311009 C152.951412,114.283471 153.227184,115.209625 153.732765,116.089471 C154.192384,116.876701 154.881813,117.525009 155.571242,118.127009 C156.582404,118.91424 157.593566,119.747778 158.558767,120.581316 C159.523967,121.414855 160.30532,122.341008 160.948787,123.406085 C162.419568,125.9067 162.69534,128.499931 161.454368,131.185777 C160.443206,133.408546 158.8805,135.12193 156.858176,136.418545 C154.881813,137.715161 152.675641,137.993007 150.423507,137.52993 C148.539068,137.159468 147.39002,135.816546 146.608667,134.149469 C146.378858,133.7327 146.19501,133.362238 145.643467,133.269623 C145.183848,133.177007 145,132.806546 145,132.343469 C145,131.556238 145.367695,131.046854 146.103086,130.907931 C147.16021,130.676392 148.217335,130.630085 149.274459,130.954238 C149.78004,131.093161 150.101773,131.417315 150.239659,131.880392 C150.469469,132.5287 150.653316,133.177007 150.883126,133.779007 C151.158897,134.612546 151.572555,135.307161 152.307946,135.955469 Z M159.018386,129.009315 C159.064348,129.055623 159.156272,129.055623 159.202234,129.055623 C159.523967,128.083162 159.386081,127.157008 159.018386,126.184547 L159.018386,129.009315 Z M161.316482,126.32347 C161.638216,127.157008 161.684178,127.990546 161.454368,128.870392 C161.408406,128.453623 161.408406,128.036854 161.408406,127.620085 C161.408406,127.203316 161.362444,126.740239 161.316482,126.32347 Z M150.837164,113.49624 C150.469469,114.005625 150.469469,114.329779 150.837164,114.885471 L150.837164,113.49624 Z M160.718977,109.421164 L160.627053,109.421164 L160.627053,109.976856 L160.718977,109.976856 L160.718977,109.421164 Z M168.762313,128.453623 C168.21077,129.703931 167.980961,131.000546 168.072885,132.297161 C168.164808,133.038084 168.44058,133.7327 168.946161,134.288392 C169.221933,134.566238 169.451742,134.612546 169.819438,134.473623 C171.244257,134.056853 172.623115,133.547469 174.093896,133.269623 C175.38083,132.991777 176.713726,132.945469 177.954698,133.454853 C178.460279,133.640084 178.598165,133.91793 178.414317,134.288392 C178.368355,134.3347 178.322393,134.427315 178.230469,134.427315 C178.046622,134.566238 177.77085,134.242084 177.587002,134.658853 C177.54104,134.797776 177.127383,134.751469 176.851612,134.844084 C176.483916,134.936699 176.024297,134.983007 175.656602,135.12193 C173.312544,136.048084 170.922524,136.650084 168.394618,136.418545 C167.613265,136.372238 166.831913,136.233315 166.096522,136.048084 C163.936312,135.446084 163.108997,133.779007 163.338807,131.787777 C163.476692,130.815315 163.66054,129.842854 164.028236,128.963008 C164.901512,126.832854 165.82075,124.749008 166.831913,122.71147 C168.072885,120.164547 170.141171,118.682701 172.944848,118.31224 C173.864087,118.219624 174.829287,118.219624 175.748526,118.451163 C177.357193,118.775317 178.598165,119.747778 179.471441,121.137009 C180.022984,121.970547 179.977022,122.850393 179.379517,123.637624 C179.011822,124.147008 178.598165,124.563777 178.092584,124.934239 C175.518716,126.879162 172.577153,127.990546 169.359818,128.361008 C169.175971,128.407316 168.992123,128.407316 168.762313,128.453623 Z M173.726201,119.840393 C173.404468,120.118239 173.174658,120.257163 172.944848,120.396086 C172.117534,121.090701 171.520029,121.970547 171.06041,122.943008 C170.554828,123.961778 170.095209,124.980547 169.63559,126.045623 C169.589628,126.184547 169.543666,126.32347 169.497704,126.5087 C169.63559,126.462393 169.727514,126.5087 169.773476,126.462393 C171.336181,125.814085 172.761001,124.980547 174.001972,123.822854 C174.323706,123.545008 174.553516,123.174547 174.783325,122.850393 C175.059097,122.387316 175.059097,121.831624 174.783325,121.368547 C174.461592,120.859162 174.139858,120.396086 173.726201,119.840393 Z M165.636903,130.583777 C165.361131,131.3247 165.131322,132.065623 165.636903,132.852854 L165.636903,130.583777 Z M167.521342,131.000546 C167.47538,131.046854 167.429418,131.046854 167.429418,131.046854 L167.429418,132.389777 L167.521342,132.389777 L167.521342,131.000546 Z M176.897574,122.433624 C176.989497,122.433624 177.035459,122.479932 177.081421,122.479932 C177.219307,122.248393 177.311231,122.063162 176.943535,121.831624 C176.943535,122.10947 176.943535,122.248393 176.897574,122.433624 Z M179.103746,122.526239 L179.287593,122.526239 C179.241632,122.387316 179.241632,122.202085 179.241632,122.063162 L179.103746,122.063162 L179.103746,122.526239 Z M182.734738,137.437315 C182.55089,137.483622 182.32108,137.668853 182.137233,137.622545 C181.769537,137.576238 181.401842,137.437315 181.080108,137.252084 C180.804337,137.066853 180.804337,136.557469 181.172032,136.32593 C181.769537,135.955469 181.769537,135.353469 181.907423,134.797776 C182.504928,131.648854 183.056471,128.453623 183.7459,125.3047 C184.021671,123.91547 184.573214,122.526239 184.94091,121.090701 C185.124757,120.581316 185.446491,120.257163 185.998034,120.164547 C186.411691,120.118239 186.733425,119.933009 187.055158,119.562547 C187.33093,119.192086 187.744587,118.960547 188.250168,118.867932 C189.26133,118.682701 190.272493,118.636393 191.283655,118.867932 C191.927122,119.053163 192.432703,119.377316 192.800398,119.886701 C193.168094,120.442393 193.489827,120.951778 193.857523,121.461162 C193.995408,121.692701 194.087332,121.924239 194.455028,121.924239 C194.500989,121.924239 194.592913,122.10947 194.684837,122.248393 C195.006571,121.785316 195.512152,121.831624 196.017733,121.924239 C196.155619,121.970547 196.247543,122.10947 196.43139,122.248393 L196.845047,122.248393 C196.845047,122.387316 196.891009,122.618855 196.799086,122.757778 C196.707162,122.943008 196.523314,123.128239 196.339466,123.267162 C196.155619,123.406085 195.971771,123.498701 195.741961,123.591316 C194.04137,124.100701 192.340779,124.054393 190.68615,123.498701 C190.088645,123.31347 189.537102,122.943008 189.215369,122.387316 C188.847673,122.572547 188.801711,122.943008 188.709787,123.220855 C188.342092,125.3047 187.882473,127.342239 187.560739,129.426085 C187.239006,131.463623 187.009196,133.454853 186.733425,135.492392 C186.733425,135.538699 186.687463,135.585007 186.687463,135.631315 C186.595539,136.372238 186.365729,136.974238 185.492453,137.113161 C184.757062,137.252084 184.021671,137.483622 183.332243,137.668853 C183.148395,137.668853 182.964547,137.52993 182.734738,137.437315 Z M186.616647,132.052338 C186.643028,131.823876 186.649878,131.589771 186.687463,131.3247 L186.549577,131.3247 C186.549577,131.589771 186.580311,131.823876 186.616647,132.052338 L186.616647,132.052338 Z M186.349753,133.292784 C186.30088,133.615876 186.222994,133.905826 186.181882,134.195776 C186.181882,134.473623 186.13592,134.705161 186.13592,134.983007 L186.273806,134.983007 C186.227844,134.705161 186.227844,134.427315 186.181882,134.195776 C186.510779,133.905826 186.435161,133.615876 186.349753,133.292784 L186.349753,133.292784 Z M186.365734,133.144752 C186.644322,132.926485 186.492239,132.573963 186.570683,132.277519 C186.504929,132.348393 186.445716,132.425858 186.411691,132.5287 C186.367883,132.749388 186.36583,132.928007 186.365734,133.144752 L186.365734,133.144752 Z M185.584377,126.555008 L185.400529,126.555008 C184.894948,129.5187 184.389367,132.436084 183.837824,135.399776 C183.929748,135.446084 183.975709,135.446084 184.067633,135.446084 C184.665138,132.5287 184.894948,129.5187 185.584377,126.555008 Z M186.687463,130.7227 C186.733425,130.7227 186.779387,130.7227 186.779387,130.769008 L186.779387,130.352238 L186.733425,130.352238 C186.733425,130.491161 186.687463,130.630085 186.687463,130.7227 Z M205.02627,133.269623 C205.072231,133.7327 205.072231,134.103161 205.118193,134.51993 C205.118193,134.890392 205.164155,135.307161 205.164155,135.72393 C205.164155,136.094392 205.393965,136.464853 205.02627,136.92793 C204.934346,135.72393 204.888384,134.705161 204.842422,133.640084 C204.842422,133.362238 204.79646,133.084392 204.474726,133.038084 C203.969145,132.991777 203.463564,132.945469 202.912021,132.852854 C202.590288,134.566238 202.820097,136.233315 202.774135,137.900391 C202.866059,137.900391 202.957983,137.993007 203.003945,137.993007 C203.923183,138.039315 204.750498,137.854084 205.531851,137.483622 C205.899546,137.344699 206.037432,137.020545 205.99147,136.603776 C205.853584,135.770238 205.76166,134.890392 205.715698,134.010546 C205.669736,133.640084 205.531851,133.408546 205.02627,133.269623 Z M202.314516,132.852854 C201.808935,132.991777 201.257392,133.084392 200.751811,133.223315 C200.384115,133.362238 200.108344,133.593777 200.062382,133.964238 C199.924496,134.844084 199.832572,135.72393 199.740649,136.603776 C199.740649,136.92793 199.878534,137.252084 200.200268,137.437315 C200.889697,137.807776 201.625087,137.993007 202.40644,137.946699 C202.130668,137.113161 202.452402,136.279622 202.360478,135.492392 C202.222592,134.658853 202.314516,133.825315 202.314516,132.852854 Z" id="path-1"></path>
        <filter x="-8.2%" y="-16.1%" width="123.0%" height="145.2%" filterUnits="objectBoundingBox" id="filter-2">
            <feOffset dx="2" dy="2" in="SourceAlpha" result="shadowOffsetOuter1"></feOffset>
            <feGaussianBlur stdDeviation="2" in="shadowOffsetOuter1" result="shadowBlurOuter1"></feGaussianBlur>
            <feColorMatrix values="0 0 0 0 1   0 0 0 0 1   0 0 0 0 1  0 0 0 0.33 0" type="matrix" in="shadowBlurOuter1"></feColorMatrix>
        </filter>
        <path d="M19.2828197,12.760387 C19.1547669,13.5312588 19.0267141,14.0451734 18.8986612,14.6875666 C19.0267141,14.6875666 19.0267141,14.6875666 19.1547669,14.8160453 C19.2828197,14.559088 19.5389253,14.3021307 19.6669782,14.0451734 C20.4352951,12.5034297 20.5633479,12.3749511 22.0999817,12.760387 C24.6610381,13.2743016 27.2220945,13.1458229 29.7831509,13.0173443 C38.234637,12.6319083 35.9296862,11.9895151 44.3811723,12.8888656 C45.6617005,13.0173443 46.9422287,13.5312588 48.0947041,13.9166948 C49.5032851,14.559088 49.6313379,15.5869171 48.4788625,16.4862676 C45.4055949,18.15649 33.4966827,17.2571395 31.1917319,17.2571395 C30.9356263,17.2571395 30.6795206,17.2571395 30.423415,17.3856181 C26.3257248,17.7710541 25.429355,18.2849686 24.6610381,22.2678066 C23.7646684,26.7645591 23.1244043,31.3897902 22.612193,35.8865427 C21.8438761,42.4389535 21.203612,48.9913643 20.5633479,55.6722537 C21.0755592,55.6722537 21.5877704,55.8007324 22.0999817,55.6722537 C26.4537776,55.0298605 30.9356263,54.6444246 35.4174749,54.9013819 C37.0821616,55.0298605 38.8749011,55.5437751 40.5395877,55.8007324 C41.6920631,56.0576896 42.2042744,56.8285615 42.46038,57.9848693 C42.46038,58.3703052 42.3323272,58.7557411 42.2042744,59.1411771 C41.8201159,59.1411771 41.4359575,59.0126984 41.1798518,59.0126984 C40.7956934,59.2696557 40.6676405,59.7835703 40.2834821,59.7835703 C39.1310067,60.0405276 37.9785313,60.5544422 36.9541088,59.6550916 C36.826056,59.526613 36.6980031,59.3981344 36.5699503,59.526613 C34.649158,60.8113994 32.4722601,59.3981344 30.423415,59.7835703 C27.0940417,60.2974849 23.6366156,60.6829208 20.0511366,61.0683567 C19.795031,62.7385791 19.5389253,64.1518442 19.4108725,65.6935879 C18.5145028,72.11752 17.7461859,78.5414522 16.9778689,84.9653843 C16.5937105,88.1773504 16.0814992,91.3893164 15.6973408,94.6012825 C15.5692879,95.8860689 14.9290238,96.6569408 13.6484956,97.0423767 C11.7277033,97.68477 9.80691106,98.3271632 7.63001312,97.8132486 C7.75806594,96.7854195 7.88611876,95.7575903 7.88611876,94.7297612 C7.88611876,94.3443252 7.5019603,93.8304107 7.24585467,93.4449747 C6.98974903,94.9867184 6.73364339,96.3999835 6.47753775,97.9417272 C4.55674546,97.9417272 3.02011162,97.68477 1.48347779,97.0423767 C0.202949595,96.3999835 -0.181208863,95.6291117 0.0748967756,94.3443252 C2.12374189,86.3786494 2.12374189,78.1560162 3.40427008,70.1903404 C5.70922083,56.4431256 7.5019603,42.6959108 9.4227526,29.0771746 C10.0630167,24.8373794 11.2154921,20.7260628 12.8801787,16.7432249 C14.2887597,13.4027802 15.1851295,12.8888656 19.2828197,12.760387 Z M11.4715977,61.0683567 C11.3435449,61.5822713 11.0874393,61.8392286 11.0874393,62.0961859 C9.80691106,72.11752 8.1422244,82.1388542 7.37390749,92.1601883 C8.1422244,90.6184446 11.8557562,62.9955364 11.4715977,61.0683567 Z M16.3376048,25.4797726 C15.1851295,28.948696 11.5996505,55.929211 11.983809,57.9848693 C12.8801787,56.4431256 15.6973408,34.9871922 16.3376048,25.4797726 Z M18.38645,55.8007324 L18.8986612,55.8007324 C19.795031,46.935706 20.6914007,38.1991583 21.5877704,29.3341319 L21.203612,29.3341319 C20.3072423,38.0706796 19.2828197,46.935706 18.38645,55.8007324 Z M18.1303443,61.9677072 L17.618133,61.9677072 C16.5937105,70.318819 15.5692879,78.6699308 14.4168126,87.1495212 L14.9290238,87.1495212 C15.9534464,78.7984094 17.1059218,70.318819 18.1303443,61.9677072 Z M13.6484956,93.1880174 C13.7765485,93.1880174 13.9046013,93.1880174 14.1607069,93.3164961 C14.2887597,91.7747524 14.4168126,90.3614873 14.5448654,88.9482222 C14.4168126,88.9482222 14.2887597,88.8197436 14.1607069,88.8197436 C14.0326541,90.3614873 13.7765485,91.7747524 13.6484956,93.1880174 Z M49.2471795,95.7575903 C48.7349682,95.8860689 48.0947041,96.3999835 47.5824928,96.2715049 C46.5580702,96.1430262 45.5336477,95.7575903 44.637278,95.2436757 C43.868961,94.7297612 43.868961,93.3164961 44.8933836,92.6741029 C46.5580702,91.6462737 46.5580702,89.9760514 46.9422287,88.4343077 C48.6069154,79.6977599 50.1435492,70.8327336 52.0643415,62.0961859 C52.8326584,58.2418266 54.3692922,54.3874673 55.3937148,50.4046294 C55.9059261,48.9913643 56.8022958,48.0920138 58.3389296,47.8350565 C59.491405,47.7065779 60.3877747,47.1926633 61.2841445,46.1648341 C62.0524614,45.137005 63.2049368,44.4946118 64.6135178,44.2376545 C67.4306798,43.7237399 70.2478418,43.5952613 73.0650039,44.2376545 C74.8577433,44.7515691 76.2663244,45.6509196 77.2907469,47.0641846 C78.3151695,48.6059284 79.2115392,50.0191934 80.2359618,51.4324585 C80.6201202,52.0748517 80.8762259,52.7172449 81.9006484,52.7172449 C82.0287012,52.7172449 82.2848069,53.2311595 82.5409125,53.6165954 C83.4372823,52.331809 84.8458633,52.4602876 86.2544443,52.7172449 C86.6386027,52.8457236 86.8947084,53.2311595 87.4069197,53.6165954 L88.559395,53.6165954 C88.559395,54.0020314 88.6874479,54.6444246 88.4313422,55.0298605 C88.1752366,55.5437751 87.6630253,56.0576896 87.150814,56.4431256 C86.6386027,56.8285615 86.1263915,57.0855188 85.4861274,57.3424761 C80.748173,58.7557411 76.0102187,58.6272625 71.4003172,57.0855188 C69.7356306,56.5716042 68.1989967,55.5437751 67.302627,54.0020314 C66.2782044,54.5159459 66.1501516,55.5437751 65.894046,56.3146469 C64.8696234,62.0961859 63.5890952,67.7492462 62.6927255,73.5307851 C61.7963558,79.1838454 61.1560917,84.708427 60.3877747,90.3614873 C60.3877747,90.4899659 60.2597219,90.6184446 60.2597219,90.7469232 C60.0036163,92.8025815 59.3633522,94.4728039 56.9303486,94.8582398 C54.8815035,95.2436757 52.8326584,95.8860689 50.9118661,96.3999835 C50.3996548,96.3999835 49.8874436,96.0145476 49.2471795,95.7575903 Z M60.0624246,80.8172091 C60.1359232,80.1833525 60.1550091,79.5338368 60.2597219,78.7984094 L59.8755635,78.7984094 C59.8755635,79.5338368 59.9611905,80.1833525 60.0624246,80.8172091 L60.0624246,80.8172091 Z M59.3188411,84.2587724 C59.1826785,85.1551762 58.9656821,85.9596308 58.8511409,86.7640853 C58.8511409,87.5349572 58.7230881,88.1773504 58.7230881,88.9482222 L59.1072466,88.9482222 C58.9791937,88.1773504 58.9791937,87.4064785 58.8511409,86.7640853 C59.7674704,85.9596308 59.5567922,85.1551762 59.3188411,84.2587724 L59.3188411,84.2587724 Z M59.3633654,83.8480637 C60.1395282,83.2424932 59.7158156,82.2644352 59.9343654,81.4419652 C59.7511698,81.6386012 59.5862,81.8535236 59.491405,82.1388542 C59.369353,82.7511436 59.3636334,83.2467137 59.3633654,83.8480637 L59.3633654,83.8480637 Z M57.1864543,65.5651092 L56.674243,65.5651092 C55.265662,73.7877424 53.857081,81.8818969 52.3204471,90.10453 C52.5765528,90.2330087 52.7046056,90.2330087 52.9607112,90.2330087 C54.6253979,82.1388542 55.265662,73.7877424 57.1864543,65.5651092 Z M60.2597219,77.1281871 C60.3877747,77.1281871 60.5158276,77.1281871 60.5158276,77.2566657 L60.5158276,76.1003579 L60.3877747,76.1003579 C60.3877747,76.4857939 60.2597219,76.8712298 60.2597219,77.1281871 Z M117.883491,49.8907148 C118.651808,47.8350565 120.5726,47.9635351 122.493392,47.7065779 L122.493392,52.8457236 C122.493392,52.8457236 122.621445,52.8457236 122.749498,52.9742022 C123.005603,51.3039799 123.261709,49.6337575 123.645868,47.8350565 C125.182501,47.3211419 126.719135,47.9635351 128.127716,48.6059284 C129.024086,48.9913643 129.152139,50.0191934 129.152139,50.9185439 C128.896033,53.1026809 128.76798,55.2868178 128.383822,57.4709547 C127.487452,62.8670577 126.334977,68.1346821 125.310554,73.5307851 C124.414184,78.2844949 124.926396,83.0382047 124.286132,87.7919144 C122.877551,96.7854195 128.639928,98.5841205 114.426065,95.6291117 C111.608903,94.9867184 110.840586,93.9588893 110.840586,91.0038805 C110.712533,89.7190941 110.840586,88.4343077 110.840586,86.7640853 C109.944216,87.6634358 109.175899,88.305829 108.535635,88.9482222 C106.230684,91.1323592 103.925733,93.0595388 100.852466,93.8304107 C96.8828283,94.7297612 93.0412437,94.7297612 89.1996591,93.5734534 C86.7666556,92.9310602 85.742233,91.3893164 85.8702858,88.9482222 C86.2544443,79.4408027 87.150814,69.9333831 89.8399232,60.6829208 C90.736293,57.4709547 92.144874,54.3874673 93.6815078,51.5609371 C95.4742473,48.4774497 98.0353037,47.3211419 101.364677,47.3211419 C103.413522,47.3211419 105.334314,47.0641846 107.127054,48.0920138 C108.535635,48.9913643 110.072269,48.8628856 111.608903,48.9913643 C113.657748,49.1198429 115.57854,49.5052789 117.883491,49.8907148 Z M98.9316734,73.6592637 C98.0353037,74.4301356 98.2914093,75.3294861 98.5475149,76.2288366 C98.4194621,76.4857939 98.0353037,76.7427512 98.0353037,76.9997084 L97.6511452,80.8540677 C97.5230924,81.7534182 97.6511452,82.6527687 97.6511452,83.5521192 L98.0353037,83.5521192 C98.1633565,81.111025 98.4194621,78.6699308 98.5475149,76.2288366 C98.6755678,75.3294861 98.8036206,74.4301356 98.9316734,73.6592637 C98.9316734,73.0168705 99.0597262,72.3744773 99.0597262,71.7320841 L98.8036206,71.7320841 C98.8036206,72.3744773 98.9316734,73.0168705 98.9316734,73.6592637 Z M99.5719375,81.6249396 C105.718473,76.3573152 109.816163,64.1518442 107.255107,59.0126984 C105.974578,59.2696557 104.69405,59.526613 103.285469,59.6550916 C101.364677,66.721417 100.084149,73.916221 99.5719375,81.6249396 Z M94.4498247,66.9783743 C94.3217719,66.9783743 94.0656663,66.8498957 93.9376134,66.8498957 C93.2973494,70.7042549 92.6570853,74.4301356 92.144874,78.2844949 C91.7607155,81.2395037 91.7607155,84.3229911 91.6326627,87.2779999 C91.6326627,87.9203931 91.3765571,88.8197436 92.5290324,89.3336582 C92.5290324,81.7534182 93.0412437,74.3016569 94.4498247,66.9783743 Z M117.499332,91.1323592 L117.499332,79.5692813 C116.218804,82.3958114 116.218804,89.0767009 117.499332,91.1323592 Z M122.877551,89.2051795 L122.877551,77.7705803 C122.237287,81.8818969 121.981181,86.6356067 122.877551,89.2051795 Z M114.554117,62.8670577 C115.450487,61.325314 115.834646,59.7835703 114.554117,58.2418266 L114.554117,62.8670577 Z M127.871611,50.6615866 L127.487452,50.6615866 L127.487452,53.2311595 L127.743558,53.2311595 C127.743558,52.4602876 127.871611,51.5609371 127.871611,50.6615866 Z M165.006928,90.4899659 C164.238611,91.1323592 163.470294,91.7747524 162.701978,92.5456242 C159.62871,95.1151971 156.043231,96.6569408 152.073593,97.0423767 C148.488115,97.4278127 145.030688,97.4278127 141.445209,96.6569408 C138.499995,96.0145476 136.579202,94.2158466 135.682833,91.1323592 C134.65841,87.5349572 134.402304,83.8090765 134.530357,80.0831959 C134.786463,71.6036054 136.835308,63.7664082 141.317157,56.5716042 C143.75016,52.7172449 146.695375,49.5052789 150.53696,47.0641846 C155.402967,43.8522186 160.653132,43.338304 166.159404,44.8800477 C166.927721,45.137005 167.567985,45.5224409 168.464354,45.9078769 C168.72046,44.3661331 168.976566,42.8243894 169.232671,41.4111244 C171.025411,28.6917387 173.202309,15.9723531 176.147524,3.5099247 C176.787788,0.683394555 177.556105,0.0410013405 180.757425,0.169479983 C181.013531,4.4092752 179.989108,8.39211313 179.476897,12.3749511 C177.81221,23.2956357 176.275576,34.0878417 174.738943,45.0085264 C174.482837,46.2933128 174.354784,47.7065779 174.226731,49.2483216 C175.123101,48.8628856 174.995048,48.0920138 175.123101,47.5780992 C175.763365,42.5674321 176.403629,37.5567651 177.043893,32.6745766 C178.324421,24.0665076 179.60495,15.4584385 180.757425,6.85036941 C181.141584,4.66623249 181.397689,2.48209556 181.781848,0.169479983 C183.318481,-0.344434588 184.727062,0.426437269 186.135643,0.940351841 C186.519802,1.06883048 186.90396,2.09665963 186.90396,2.6105742 C187.032013,4.4092752 187.032013,6.2079762 186.90396,7.87819856 L181.525742,55.6722537 C181.013531,61.1968354 180.373267,66.5929384 179.861055,72.11752 C179.476897,75.8434007 179.348844,79.6977599 179.092738,83.5521192 C178.964686,84.1945124 179.092738,84.8369057 179.092738,85.4792989 C179.092738,94.0873679 177.171946,93.8304107 173.330362,93.8304107 C171.025411,93.8304107 170.769305,92.0317097 168.592407,91.6462737 C167.439932,91.5177951 166.415509,90.8754019 165.006928,90.4899659 Z M184.722327,14.8681499 C184.102182,15.1521489 184.214851,15.7472518 184.214851,16.2293103 C183.830693,20.2121483 183.318481,24.1949862 182.934323,28.3063028 C182.037953,35.2441495 181.141584,42.3104749 180.245214,49.3768002 C180.117161,50.9185439 179.989108,52.5887663 179.861055,54.13051 C180.117161,54.0020314 180.245214,53.8735527 180.245214,53.6165954 C180.885478,48.734407 181.525742,43.7237399 182.037953,38.8415515 C182.678217,33.5739271 183.190429,28.4347814 183.830693,23.1671571 C184.085225,20.4856843 184.466241,17.677307 184.722327,14.8681499 L184.722327,14.8681499 Z M184.861709,11.0821219 C185.065848,10.8706718 185.239274,10.6592216 185.239274,10.4477714 C185.495379,8.9060277 185.623432,7.36428399 185.751485,5.82254027 L185.751485,3.25296741 L185.495379,3.25296741 C185.243597,5.9054756 184.991814,8.433806 184.861709,11.0821219 L184.861709,11.0821219 Z M184.722327,14.8681499 C184.763308,14.8493823 184.80749,14.8319733 184.855115,14.8160453 L184.855115,11.2186433 C184.857277,11.1731 184.859475,11.1275933 184.861709,11.0821219 C184.817775,11.127629 184.772419,11.1731362 184.727062,11.2186433 L184.727062,14.8160453 C184.725489,14.8334135 184.72391,14.8507817 184.722327,14.8681499 L184.722327,14.8681499 Z M162.189766,52.5887663 C161.165344,52.7172449 160.268974,52.9742022 159.62871,52.7172449 C157.964023,51.9463731 157.067653,52.7172449 156.171284,54.0020314 C152.073593,59.9120489 149.000326,66.2075024 148.360062,73.5307851 C148.232009,75.9718793 147.84785,78.4129735 147.84785,80.9825464 C147.84785,83.8090765 148.103956,86.6356067 149.256431,89.5906154 C149.64059,89.0767009 150.024748,88.9482222 150.152801,88.6912649 C152.585805,85.6077775 155.018808,82.7812474 157.195706,79.5692813 C161.165344,73.7877424 163.7264,67.3638102 164.366664,60.2974849 C164.62277,57.4709547 164.110559,54.6444246 162.189766,52.5887663 Z M141.189104,87.5349572 C140.676893,81.7534182 141.061051,75.9718793 141.573262,70.1903404 C140.292734,75.9718793 139.268312,81.7534182 141.189104,87.5349572 Z M177.940263,73.916221 C176.659735,79.6977599 176.531682,83.9375552 177.299999,85.4792989 C177.556105,81.4964609 177.684157,77.7705803 177.940263,73.916221 Z M146.311217,84.8369057 C146.439269,80.8540677 146.567322,76.8712298 146.823428,72.7599132 C146.055111,76.7427512 145.414847,80.7255891 146.311217,84.8369057 Z M171.281516,84.0660338 C170.129041,85.4792989 170.257094,85.7362562 171.665675,86.8925639 C171.537622,85.8647348 171.409569,84.9653843 171.281516,84.0660338 Z" id="path-3"></path>
        <filter x="-2.7%" y="-5.1%" width="107.5%" height="114.3%" filterUnits="objectBoundingBox" id="filter-4">
            <feOffset dx="2" dy="2" in="SourceAlpha" result="shadowOffsetOuter1"></feOffset>
            <feGaussianBlur stdDeviation="2" in="shadowOffsetOuter1" result="shadowBlurOuter1"></feGaussianBlur>
            <feColorMatrix values="0 0 0 0 1   0 0 0 0 1   0 0 0 0 1  0 0 0 0.33 0" type="matrix" in="shadowBlurOuter1"></feColorMatrix>
        </filter>
    </defs>
    <g id="Page-1" stroke="none" stroke-width="1" fill="none" fill-rule="evenodd">
        <g id="Desktop" transform="translate(-417.000000, -409.000000)">
            <g id="Logo" transform="translate(373.000000, 377.000000)">
                <g id="FradSer" transform="translate(46.000000, 34.000000)">
                    <g id="Ser.">
                        <use fill="black" fill-opacity="1" filter="url(#filter-2)" xlink:href="#path-1"></use>
                        <use fill="#FFFFFF" fill-rule="evenodd" xlink:href="#path-1"></use>
                    </g>
                    <g id="Frad">
                        <use fill="black" fill-opacity="1" filter="url(#filter-4)" xlink:href="#path-3"></use>
                        <use fill="#FFFFFF" fill-rule="evenodd" xlink:href="#path-3"></use>
                    </g>
                </g>
            </g>
        </g>
    </g>
</svg>